<?xml version="1.0" encoding="UTF-8"?>
<svg id="Layer_2" data-name="Layer 2" xmlns="http://www.w3.org/2000/svg" viewBox="0 0 104.36 134.03">
  <defs>
    <style>
      .cls-1, .cls-2 {
        fill: #fff;
      }

      .cls-2 {
        opacity: .3;
      }
    </style>
  </defs>
  <g id="Layer_1-2" data-name="Layer 1">
    <g>
      <path class="cls-1" d="m86.12,37.63v96.17c-1,.16-2.02.23-3.06.23H21.31c-10.56,0-19.33-7.68-21.01-17.76C53.04,68.26,73.87,48.54,86.12,37.63Z"/>
      <path class="cls-1" d="m81.65,18.28C73.21,49.38,39.64,96.72,0,74.39V18.24h79l2.65.04Z"/>
      <path class="cls-2" d="m104.36,0v134.03h-18.24V37.63C73.87,48.54,53.04,68.26.3,116.27c-.2-1.15-.3-2.34-.3-3.55v-38.33c39.64,22.33,73.21-25.01,81.65-56.11l-2.65-.04H0V0h104.36Z"/>
    </g>
  </g>
</svg>